<?xml version="1.0" encoding="utf-8"?>
<!-- Generator: Adobe Illustrator 30.7.0, SVG Export Plug-In . SVG Version: 9.03 Build 0)  -->
<svg version="1.1" id="art" xmlns="http://www.w3.org/2000/svg" xmlns:xlink="http://www.w3.org/1999/xlink" x="0px" y="0px"
	 viewBox="0 0 878.746 639.125" enable-background="new 0 0 878.746 639.125" xml:space="preserve">
<g id="Big_Green_Egg_Black">
	<path d="M296.065,596.267l7.332,0.006l-0.004,4.471l-7.332-0.006l-0.015,18.519c-0.001,1.146,0.332,1.978,1,2.495
		c0.668,0.516,1.654,0.775,2.957,0.776c0.945,0.001,2.07-0.132,3.374-0.398l-0.004,4.816c-1.304,0.266-3.13,0.398-5.475,0.396
		c-2.314-0.002-4.017-0.624-5.108-1.867c-1.09-1.243-1.635-2.992-1.633-5.247l0.016-19.494l-5.279-0.004l0.004-4.471l5.279,0.004
		l0.007-9.231l4.889,0.004L296.065,596.267z M13.614,590.421l13.199,0.011l-0.029,35.661l5.182,0.004l0.029-35.661l13.198,0.011
		l0.004-5.275l-31.58-0.026L13.614,590.421z M373.602,589.678c3.487,0.003,6.24,0.989,8.259,2.96c2.02,1.97,3.239,4.485,3.66,7.542
		l5.182,0.004c-0.192-2.905-0.859-5.391-1.998-7.456c-1.138-2.064-2.563-3.71-4.273-4.934c-1.71-1.225-3.535-2.095-5.473-2.613
		c-1.938-0.518-3.853-0.777-5.743-0.778c-2.9-0.002-5.501,0.54-7.799,1.627c-2.298,1.088-4.222,2.596-5.772,4.525
		c-1.549,1.928-2.724,4.193-3.525,6.791c-0.801,2.598-1.201,5.407-1.203,8.427c-0.003,3.822,0.516,7.119,1.556,9.891
		c1.041,2.772,2.432,5.028,4.174,6.768c1.742,1.741,3.696,3.004,5.863,3.789c2.167,0.785,4.407,1.178,6.721,1.18
		c2.444,0.002,4.693-0.426,6.747-1.285c2.054-0.858,3.847-2.06,5.38-3.607c1.534-1.547,2.757-3.333,3.671-5.358
		c0.914-2.025,1.47-4.165,1.667-6.42l-5.182-0.004c-0.72,3.86-2.14,6.726-4.26,8.597c-2.12,1.871-4.777,2.806-7.971,2.803
		c-2.313-0.002-4.316-0.443-6.012-1.324c-1.694-0.88-3.07-2.067-4.127-3.558c-1.058-1.492-1.831-3.164-2.318-5.018
		c-0.488-1.855-0.73-3.795-0.729-5.82c0.004-5.466,1.197-9.622,3.579-12.468C366.055,591.096,369.365,589.675,373.602,589.678z
		 M63.229,595.047c-2.054-0.001-3.969,0.437-5.745,1.314c-1.777,0.878-3.204,2.291-4.282,4.239h-0.097l0.013-15.767l-4.889-0.004
		l-0.033,41.28l4.889,0.004l0.014-17.315c0.002-2.829,0.818-5.025,2.449-6.591c1.63-1.566,3.62-2.348,5.966-2.346
		c2.575,0.002,4.481,0.595,5.718,1.782c1.238,1.185,1.855,2.907,1.854,5.161l-0.016,19.321l4.888,0.004l0.017-20.468
		c0.003-3.593-0.973-6.26-2.926-8C69.094,595.922,66.487,595.05,63.229,595.047z M333.553,604.525
		c0.78,2.198,1.169,4.788,1.167,7.769l-0.001,0.746l-23.562-0.019c0.097,1.491,0.429,2.829,0.999,4.014
		c0.568,1.186,1.3,2.189,2.197,3.013c0.895,0.822,1.881,1.444,2.956,1.865c1.074,0.422,2.167,0.633,3.275,0.634
		c1.694,0.001,3.21-0.36,4.546-1.085c0.816-0.42,1.541-0.983,2.177-1.69c0.636-0.707,1.15-1.556,1.543-2.55l5.182,0.004
		c-0.588,1.72-1.364,3.239-2.326,4.557c-0.962,1.317-2.039,2.387-3.229,3.208c-1.19,0.821-2.437,1.422-3.741,1.803
		c-1.304,0.38-2.607,0.57-3.912,0.569c-2.412-0.002-4.554-0.424-6.428-1.266c-1.873-0.842-3.437-2-4.689-3.473
		c-1.254-1.473-2.19-3.174-2.807-5.105c-0.618-1.93-0.926-4.004-0.924-6.221c0.002-2.217,0.313-4.29,0.934-6.22
		c0.621-1.929,1.559-3.629,2.816-5.1c1.255-1.471,2.821-2.625,4.695-3.465c1.875-0.839,4.018-1.258,6.43-1.256
		c1.761,0.001,3.463,0.318,5.107,0.95c1.646,0.632,3.128,1.627,4.447,2.985C331.723,600.548,332.772,602.326,333.553,604.525z
		 M329.541,608.563c-0.357-2.675-1.348-4.76-2.977-6.252c-1.629-1.491-3.616-2.238-5.962-2.24c-2.314-0.002-4.352,0.761-6.113,2.288
		c-1.76,1.527-2.822,3.591-3.182,6.19L329.541,608.563z M155.949,611.462c-0.003,3.555-0.942,6.191-2.818,7.91
		c-1.875,1.719-4.474,2.577-7.799,2.574c-3.324-0.003-5.923-0.865-7.795-2.587c-1.872-1.721-2.807-4.359-2.804-7.914l0.021-26.201
		l-5.182-0.004l-0.021,25.456c-0.009,11.008,5.25,16.516,15.777,16.524s15.794-5.491,15.804-16.499l0.02-25.456l-5.182-0.004
		L155.949,611.462z M196.707,626.23l4.889,0.004l0.024-30.042l-4.889-0.004L196.707,626.23z M185.691,586.947l-4.889-0.004
		l-0.008,9.231l-5.279-0.004l-0.004,4.471l5.279,0.004l-0.016,19.494c-0.002,2.255,0.543,4.005,1.634,5.247
		c1.09,1.243,2.793,1.866,5.107,1.867c2.346,0.002,4.171-0.13,5.475-0.396l0.004-4.816c-1.304,0.266-2.429,0.399-3.374,0.398
		c-1.303-0.001-2.289-0.26-2.957-0.776c-0.667-0.517-1.001-1.349-1-2.495l0.015-18.519l7.333,0.006l0.004-4.471l-7.333-0.006
		L185.691,586.947z M167.767,626.206l4.889,0.004l0.033-41.28l-4.889-0.004L167.767,626.206z M283.97,622.516
		c0.489,0,1.059-0.076,1.711-0.228l-0.003,4.013c-1.173,0.228-2.445,0.342-3.813,0.341c-1.335-0.001-2.362-0.298-3.079-0.891
		c-0.717-0.593-1.155-1.693-1.317-3.298c-0.947,1.49-2.455,2.674-4.525,3.551c-2.07,0.877-4.197,1.315-6.381,1.313
		c-2.02-0.002-3.723-0.28-5.107-0.835c-1.385-0.556-2.46-1.273-3.225-2.153c-0.765-0.88-1.302-1.836-1.611-2.868
		c-0.309-1.032-0.462-2.102-0.461-3.211c0.002-2.829,0.827-4.969,2.474-6.419c1.647-1.451,4.491-2.423,8.533-2.917l5.574-0.684
		c1.564-0.19,2.697-0.524,3.398-1.001c0.701-0.477,1.052-1.346,1.053-2.608c0.001-0.994-0.186-1.815-0.56-2.466
		c-0.374-0.65-0.903-1.157-1.588-1.52c-0.683-0.364-1.458-0.613-2.321-0.747c-0.863-0.135-1.833-0.202-2.909-0.203
		c-2.346-0.002-4.237,0.445-5.671,1.342c-1.435,0.897-2.186,2.435-2.253,4.614l-4.595-0.004c0.329-3.669,1.546-6.325,3.649-7.966
		c2.103-1.643,5.127-2.462,9.07-2.459c1.435,0.001,2.835,0.127,4.204,0.376c1.368,0.25,2.623,0.69,3.763,1.322
		s2.06,1.521,2.759,2.668c0.7,1.147,1.049,2.543,1.048,4.186l-0.013,16.168C281.771,621.654,282.503,622.515,283.97,622.516z
		 M277.184,610.585c-0.358,0.459-0.889,0.812-1.59,1.06c-0.701,0.248-1.768,0.486-3.202,0.714l-5.524,0.799
		c-2.021,0.305-3.496,0.819-4.426,1.544c-0.929,0.726-1.395,1.854-1.396,3.382c-0.001,1.414,0.552,2.561,1.659,3.441
		c1.108,0.88,2.541,1.321,4.302,1.322c1.369,0.001,2.672-0.199,3.911-0.599c1.239-0.4,2.323-0.982,3.252-1.745
		c0.929-0.763,1.664-1.661,2.202-2.693c0.538-1.031,0.808-2.159,0.809-3.382L277.184,610.585z M247.668,597.203
		c-1.074-0.765-2.141-1.292-3.2-1.58c-1.059-0.287-1.996-0.431-2.811-0.432c-2.346-0.002-4.351,0.474-6.014,1.428
		c-1.663,0.954-3.114,2.329-4.354,4.125c-0.976-1.912-2.229-3.318-3.761-4.217c-1.531-0.9-3.177-1.35-4.936-1.352
		c-2.054-0.001-3.969,0.437-5.745,1.314c-1.777,0.877-3.204,2.29-4.281,4.239l-0.097,0l0.004-4.529l-4.889-0.004l-0.024,30.042
		l4.889,0.004l0.014-17.315c0.002-2.829,0.818-5.025,2.449-6.591c1.632-1.566,3.62-2.348,5.966-2.346
		c1.793,0.001,3.267,0.556,4.423,1.666c1.156,1.109,1.734,2.944,1.732,5.505l-0.016,19.092l4.888,0.004l0.015-18.175
		c0.002-2.637,0.802-4.643,2.399-6.018c1.598-1.375,3.603-2.061,6.015-2.059c1.793,0.001,3.267,0.556,4.422,1.666
		c1.156,1.109,1.734,2.944,1.731,5.505l-0.015,19.092l4.889,0.004l0.016-20.468c0.002-2.141-0.348-3.918-1.047-5.333
		C249.63,599.058,248.743,597.968,247.668,597.203z M106.386,604.342c0.78,2.198,1.17,4.788,1.167,7.769l-0.001,0.746l-23.562-0.019
		c0.097,1.491,0.43,2.829,0.999,4.014c0.57,1.186,1.302,2.189,2.197,3.013c0.896,0.823,1.88,1.444,2.956,1.865
		c1.076,0.422,2.167,0.633,3.275,0.634c1.695,0.001,3.21-0.36,4.547-1.085c0.816-0.42,1.541-0.983,2.177-1.69
		c0.637-0.707,1.15-1.556,1.542-2.55l5.182,0.004c-0.588,1.72-1.363,3.239-2.325,4.557c-0.963,1.317-2.039,2.387-3.229,3.208
		c-1.191,0.821-2.437,1.422-3.742,1.803c-1.304,0.381-2.608,0.57-3.911,0.569c-2.412-0.002-4.554-0.423-6.428-1.266
		c-1.873-0.843-3.437-2-4.69-3.473c-1.254-1.473-2.189-3.174-2.807-5.105c-0.618-1.93-0.925-4.004-0.923-6.221
		c0.002-2.217,0.312-4.29,0.933-6.22c0.622-1.93,1.56-3.63,2.815-5.1c1.256-1.471,2.821-2.626,4.696-3.465
		c1.875-0.839,4.017-1.258,6.43-1.256c1.76,0.001,3.463,0.318,5.107,0.95c1.646,0.632,3.127,1.627,4.447,2.985
		C104.556,600.365,105.606,602.143,106.386,604.342z M102.374,608.38c-0.357-2.675-1.349-4.76-2.977-6.252
		c-1.629-1.492-3.616-2.238-5.963-2.24c-2.314-0.002-4.352,0.761-6.113,2.288c-1.761,1.528-2.822,3.591-3.182,6.19L102.374,608.38z
		 M196.735,591.256l4.889,0.004l0.005-6.306l-4.889-0.004L196.735,591.256z M517.611,595.413c-2.053-0.001-3.968,0.437-5.745,1.314
		c-1.777,0.877-3.203,2.29-4.281,4.24h-0.098l0.004-4.529l-4.889-0.004l-0.024,30.042l4.889,0.004l0.014-17.315
		c0.002-2.829,0.819-5.025,2.45-6.591c1.631-1.566,3.62-2.348,5.966-2.346c2.575,0.002,4.481,0.595,5.719,1.781
		c1.237,1.186,1.855,2.907,1.853,5.161l-0.016,19.322l4.888,0.004l0.016-20.468c0.003-3.593-0.972-6.26-2.926-8
		C523.477,596.287,520.871,595.415,517.611,595.413z M733.538,591.687l4.889,0.004l0.005-6.307l-4.889-0.004L733.538,591.687z
		 M770.827,604.876c0.78,2.198,1.169,4.788,1.167,7.769l0,0.745l-23.563-0.019c0.097,1.491,0.43,2.829,1,4.014
		c0.568,1.186,1.301,2.189,2.197,3.013c0.895,0.823,1.881,1.444,2.956,1.865c1.075,0.422,2.167,0.633,3.275,0.634
		c1.694,0.001,3.21-0.36,4.547-1.086c0.816-0.42,1.541-0.983,2.177-1.69c0.635-0.707,1.149-1.556,1.542-2.55l5.182,0.004
		c-0.588,1.72-1.364,3.239-2.326,4.557c-0.962,1.317-2.038,2.387-3.229,3.208c-1.19,0.821-2.437,1.422-3.741,1.803
		c-1.304,0.381-2.608,0.57-3.912,0.569c-2.412-0.002-4.554-0.423-6.427-1.266c-1.874-0.842-3.437-2-4.69-3.473
		c-1.254-1.473-2.19-3.174-2.807-5.106c-0.618-1.93-0.926-4.004-0.924-6.221c0.002-2.217,0.313-4.29,0.934-6.22
		c0.621-1.93,1.559-3.629,2.815-5.1c1.256-1.471,2.821-2.625,4.696-3.465c1.874-0.839,4.017-1.258,6.429-1.257
		c1.761,0.001,3.463,0.318,5.109,0.951c1.645,0.632,3.127,1.627,4.446,2.985C768.996,600.899,770.047,602.677,770.827,604.876z
		 M766.815,608.914c-0.357-2.675-1.348-4.76-2.977-6.252c-1.628-1.492-3.616-2.239-5.962-2.24c-2.314-0.002-4.352,0.761-6.113,2.287
		c-1.76,1.528-2.822,3.591-3.182,6.19L766.815,608.914z M733.51,626.661l4.889,0.004l0.024-30.043l-4.889-0.004L733.51,626.661z
		 M727.424,595.581c-1.727-0.001-3.348,0.524-4.865,1.573c-1.516,1.05-2.828,2.702-3.939,4.956h-0.097l0.005-5.504l-4.889-0.004
		l-0.024,30.043l4.889,0.004l0.012-15.25c0.003-3.172,0.746-5.609,2.23-7.309c1.484-1.7,3.48-2.549,5.99-2.546
		c0.619,0,1.189,0.049,1.712,0.145c0.521,0.096,1.107,0.24,1.758,0.431l0.005-6.192c-0.456-0.153-0.871-0.249-1.246-0.287
		C728.589,595.601,728.076,595.582,727.424,595.581z M792.001,595.633c-2.052-0.002-3.968,0.437-5.745,1.314
		c-1.777,0.878-3.203,2.291-4.281,4.239h-0.098l0.004-4.529l-4.889-0.004l-0.024,30.042l4.889,0.004l0.014-17.315
		c0.002-2.829,0.819-5.025,2.45-6.591c1.631-1.566,3.619-2.348,5.966-2.346c2.575,0.002,4.481,0.596,5.718,1.781
		c1.237,1.186,1.855,2.907,1.854,5.161l-0.016,19.322l4.888,0.004l0.016-20.468c0.003-3.593-0.973-6.26-2.926-8
		C797.867,596.508,795.261,595.636,792.001,595.633z M707.471,604.825c0.78,2.198,1.17,4.788,1.168,7.769l-0.001,0.746
		l-23.563-0.019c0.097,1.491,0.429,2.829,0.999,4.014c0.569,1.186,1.301,2.189,2.197,3.013c0.895,0.823,1.88,1.444,2.956,1.865
		c1.075,0.422,2.167,0.633,3.275,0.634c1.695,0.001,3.21-0.36,4.547-1.085c0.815-0.42,1.541-0.983,2.177-1.69
		c0.636-0.707,1.15-1.556,1.542-2.55l5.182,0.004c-0.587,1.72-1.363,3.239-2.326,4.557c-0.963,1.317-2.039,2.387-3.229,3.208
		c-1.191,0.821-2.437,1.422-3.742,1.803c-1.303,0.381-2.608,0.57-3.911,0.569c-2.412-0.002-4.554-0.423-6.427-1.266
		c-1.874-0.842-3.437-2-4.69-3.473c-1.253-1.473-2.189-3.174-2.806-5.106c-0.618-1.93-0.926-4.004-0.924-6.221
		c0.002-2.217,0.313-4.29,0.934-6.22c0.62-1.93,1.559-3.63,2.814-5.1c1.256-1.471,2.821-2.625,4.696-3.465
		c1.875-0.839,4.018-1.258,6.429-1.256c1.76,0.001,3.463,0.318,5.108,0.951c1.645,0.632,3.128,1.627,4.446,2.985
		C705.642,600.848,706.691,602.626,707.471,604.825z M703.46,608.864c-0.357-2.675-1.349-4.76-2.977-6.252
		c-1.629-1.492-3.616-2.238-5.963-2.24c-2.314-0.002-4.352,0.761-6.113,2.287c-1.761,1.528-2.822,3.591-3.182,6.19L703.46,608.864z
		 M867.123,613.467l-23.562-0.019c0.097,1.491,0.429,2.829,0.999,4.014c0.569,1.186,1.301,2.189,2.197,3.013
		c0.896,0.823,1.881,1.444,2.957,1.865c1.075,0.422,2.166,0.633,3.275,0.634c1.694,0.001,3.209-0.36,4.546-1.086
		c0.816-0.42,1.541-0.983,2.177-1.69c0.636-0.707,1.15-1.556,1.542-2.55l5.182,0.004c-0.587,1.72-1.363,3.239-2.326,4.557
		c-0.963,1.317-2.039,2.387-3.229,3.208c-1.191,0.821-2.437,1.422-3.742,1.803c-1.303,0.38-2.607,0.57-3.911,0.569
		c-2.412-0.002-4.554-0.424-6.427-1.266c-1.874-0.842-3.437-2-4.69-3.472c-1.253-1.473-2.189-3.174-2.806-5.106
		c-0.618-1.93-0.926-4.004-0.924-6.221c0.002-2.217,0.313-4.29,0.934-6.22c0.621-1.929,1.559-3.63,2.815-5.1
		c1.257-1.471,2.821-2.625,4.696-3.465c1.875-0.839,4.018-1.258,6.429-1.256c1.76,0.001,3.463,0.318,5.108,0.95
		c1.645,0.632,3.128,1.627,4.446,2.985c1.319,1.358,2.368,3.136,3.148,5.335c0.78,2.198,1.17,4.788,1.167,7.769L867.123,613.467z
		 M861.945,608.991c-0.357-2.675-1.348-4.76-2.977-6.252c-1.629-1.492-3.617-2.238-5.962-2.24c-2.315-0.002-4.352,0.761-6.114,2.287
		c-1.761,1.528-2.822,3.591-3.182,6.19L861.945,608.991z M826.983,621.203c-1.273,1.165-3,1.747-5.184,1.745
		c-2.998-0.003-5.254-1.027-6.769-3.073c-1.513-2.047-2.268-4.77-2.265-8.172c0.003-3.401,0.762-6.124,2.278-8.168
		c1.518-2.044,3.776-3.064,6.774-3.061c2.248,0.002,4.033,0.548,5.352,1.638c1.318,1.091,2.123,2.63,2.416,4.618l5.181,0.004
		c-0.485-3.594-1.934-6.337-4.344-8.231c-2.41-1.894-5.391-2.843-8.943-2.846c-2.249-0.002-4.245,0.408-5.99,1.229
		c-1.744,0.82-3.22,1.994-4.427,3.522c-2.316,2.941-3.476,6.763-3.48,11.464c-0.002,2.026,0.257,3.985,0.778,5.878
		c0.52,1.892,1.333,3.594,2.44,5.105c1.106,1.51,2.555,2.706,4.348,3.587c1.792,0.88,3.91,1.321,6.354,1.323
		c3.487,0.003,6.339-0.921,8.556-2.774c2.219-1.852,3.818-4.937,4.8-9.255l-5.182-0.004
		C829.151,618.214,828.254,620.039,826.983,621.203z M456.987,605.196c0.617,1.931,0.925,4.005,0.923,6.222
		c-0.002,2.217-0.312,4.291-0.933,6.22c-0.621,1.93-1.559,3.63-2.815,5.101c-1.257,1.47-2.814,2.626-4.671,3.465
		c-1.858,0.839-4.01,1.257-6.454,1.256c-2.412-0.002-4.554-0.424-6.428-1.266c-1.873-0.842-3.436-2-4.69-3.473
		c-1.253-1.473-2.189-3.174-2.806-5.106c-0.618-1.93-0.926-4.004-0.924-6.221c0.002-2.217,0.313-4.29,0.934-6.22
		c0.62-1.929,1.559-3.629,2.815-5.1c1.256-1.471,2.821-2.625,4.696-3.465c1.875-0.839,4.018-1.258,6.429-1.256
		c2.445,0.002,4.595,0.424,6.452,1.266c1.856,0.842,3.412,2,4.666,3.473C455.433,601.565,456.369,603.266,456.987,605.196z
		 M452.728,611.414c0.001-1.414-0.176-2.791-0.534-4.128c-0.357-1.339-0.918-2.543-1.684-3.614
		c-0.765-1.071-1.775-1.922-3.028-2.554c-1.254-0.632-2.729-0.948-4.423-0.949c-1.695-0.001-3.162,0.312-4.401,0.942
		c-1.238,0.63-2.25,1.479-3.032,2.549c-0.783,1.069-1.355,2.273-1.714,3.611c-0.359,1.336-0.54,2.713-0.541,4.127
		c-0.001,1.415,0.177,2.79,0.534,4.128c0.358,1.339,0.918,2.543,1.684,3.614c0.765,1.071,1.774,1.922,3.029,2.553
		c1.254,0.632,2.728,0.948,4.423,0.95c1.694,0.001,3.169-0.313,4.425-0.943c1.255-0.629,2.266-1.479,3.033-2.548
		c0.767-1.07,1.33-2.273,1.689-3.611C452.547,614.204,452.727,612.829,452.728,611.414z M488.476,596.422l-7.43-0.006
		l-13.014,12.832l0.02-24.08l-4.889-0.004l-0.033,41.28l4.889,0.004l0.009-10.836l4.501-4.182l10.205,15.03l6.648,0.006
		l-12.938-18.759L488.476,596.422z M491.754,591.493l4.889,0.004l0.005-6.306l-4.889-0.004L491.754,591.493z M491.726,626.467
		l4.889,0.004l0.024-30.042l-4.889-0.004L491.726,626.467z M423.549,605.17c0.618,1.931,0.926,4.005,0.924,6.222
		c-0.002,2.217-0.313,4.291-0.934,6.22c-0.621,1.93-1.56,3.63-2.815,5.101c-1.255,1.471-2.813,2.625-4.671,3.465
		c-1.858,0.839-4.009,1.257-6.454,1.255c-2.412-0.002-4.554-0.423-6.427-1.266c-1.873-0.842-3.437-2-4.69-3.473
		c-1.253-1.473-2.189-3.174-2.807-5.106c-0.618-1.93-0.926-4.004-0.924-6.221c0.002-2.217,0.313-4.29,0.934-6.22
		c0.621-1.93,1.559-3.63,2.815-5.1c1.256-1.471,2.822-2.625,4.696-3.465c1.875-0.839,4.018-1.258,6.43-1.256
		c2.444,0.002,4.595,0.425,6.452,1.267c1.857,0.842,3.412,2,4.665,3.472C421.996,601.538,422.931,603.239,423.549,605.17z
		 M419.291,611.387c0.001-1.414-0.177-2.791-0.535-4.128c-0.358-1.338-0.918-2.543-1.683-3.614
		c-0.766-1.071-1.776-1.922-3.029-2.554c-1.254-0.632-2.729-0.948-4.424-0.949c-1.695-0.001-3.162,0.312-4.401,0.942
		c-1.238,0.63-2.25,1.48-3.032,2.549c-0.783,1.069-1.354,2.273-1.714,3.611c-0.359,1.337-0.539,2.713-0.54,4.127
		c-0.001,1.415,0.177,2.79,0.534,4.128c0.358,1.339,0.919,2.542,1.684,3.613c0.765,1.071,1.775,1.922,3.029,2.553
		c1.255,0.632,2.729,0.949,4.423,0.95c1.694,0.001,3.169-0.313,4.425-0.943c1.255-0.629,2.266-1.479,3.033-2.548
		c0.767-1.07,1.329-2.273,1.689-3.611C419.11,614.177,419.29,612.802,419.291,611.387z M590.096,608.027l22.195,0.018l0.004-5.274
		l-22.195-0.018l0.01-11.868l22.879,0.018l0.004-5.275l-28.06-0.023l-0.033,40.936l28.549,0.023l0.004-5.275l-23.367-0.019
		L590.096,608.027z M557.256,596.477l4.888,0.004l-0.022,27.52c-0.004,5.389-1.173,9.258-3.505,11.607
		c-2.332,2.349-6.138,3.521-11.417,3.517c-1.597-0.001-3.071-0.108-4.424-0.319c-1.352-0.211-2.632-0.642-3.836-1.293
		c-1.205-0.651-2.223-1.607-3.053-2.87c-0.83-1.261-1.358-2.886-1.585-4.874l4.889,0.004c0.421,1.835,1.317,3.107,2.685,3.815
		c1.368,0.708,3.307,1.063,5.816,1.065c3.259,0.003,5.663-0.836,7.213-2.517c1.549-1.68,2.325-3.859,2.328-6.534l0.003-4.358h-0.098
		c-1.24,2.101-2.708,3.553-4.404,4.354c-1.695,0.801-3.537,1.201-5.525,1.199c-1.76-0.001-3.478-0.299-5.156-0.893
		c-1.678-0.594-3.184-1.512-4.52-2.756c-1.335-1.243-2.393-2.859-3.173-4.847c-0.781-1.989-1.169-4.32-1.167-6.995
		c0.002-2.676,0.394-5.008,1.178-6.994c0.783-1.987,1.844-3.611,3.181-4.87c1.337-1.261,2.829-2.186,4.474-2.777
		c1.647-0.591,3.367-0.886,5.159-0.885c2.184,0.002,4.163,0.433,5.939,1.295c1.775,0.862,3.119,2.133,4.03,3.815h0.098
		L557.256,596.477z M557.244,611.384c0.002-3.172-0.844-5.763-2.536-7.771c-1.693-2.008-3.99-3.013-6.89-3.015
		c-2.901-0.002-5.199,0.999-6.896,3.004c-1.695,2.006-2.544,4.595-2.547,7.767c-0.003,3.134,0.834,5.686,2.511,7.656
		c1.677,1.969,3.982,2.956,6.915,2.958c2.9,0.002,5.198-0.98,6.895-2.947C556.391,617.068,557.241,614.518,557.244,611.384z
		 M644.025,596.547l-6.501-0.005l-7.439,10.314l-7.276-10.326l-6.648-0.005l10.547,14.513l-11.402,15.529l6.452,0.005l8.124-11.403
		l8.056,11.416l6.845,0.006l-11.525-15.547L644.025,596.547z M675.109,605.085c0.716,1.97,1.073,4.196,1.071,6.68
		c-0.002,2.446-0.363,4.663-1.081,6.65c-0.718,1.987-1.714,3.667-2.986,5.043c-1.272,1.375-2.747,2.416-4.427,3.121
		c-1.678,0.706-3.496,1.058-5.452,1.056c-1.988-0.001-3.87-0.423-5.645-1.265c-1.775-0.842-3.135-2.048-4.079-3.616h-0.098
		l-0.013,15.423l-4.889-0.004l0.033-41.624l4.889,0.004l-0.004,4.185h0.098c0.914-1.528,2.276-2.721,4.084-3.58
		c1.809-0.859,3.692-1.287,5.647-1.285c1.955,0.002,3.773,0.357,5.45,1.065c1.678,0.709,3.152,1.75,4.421,3.128
		C673.402,601.443,674.395,603.117,675.109,605.085z M670.998,611.762c0.001-1.491-0.185-2.886-0.559-4.186
		c-0.374-1.3-0.943-2.476-1.708-3.528c-0.766-1.052-1.743-1.875-2.932-2.468c-1.189-0.594-2.581-0.891-4.179-0.892
		c-1.597-0.001-2.998,0.294-4.205,0.885c-1.207,0.591-2.201,1.403-2.984,2.434c-0.783,1.032-1.363,2.216-1.738,3.554
		c-0.376,1.337-0.565,2.732-0.566,4.185c-0.003,3.401,0.859,6.097,2.585,8.086c1.726,1.989,4.023,2.985,6.89,2.987
		c2.869,0.002,5.15-0.989,6.847-2.976C670.145,617.858,670.995,615.163,670.998,611.762z"/>
	<path fill-rule="evenodd" clip-rule="evenodd" d="M548.185,431.15c0,0.001,2.341,10.058,6.543,2.965
		c0.061-0.101,1.188-3.553,1.245-3.745l7.178-23.408c-9.983-0.509-14.516-1.473-23.936,2.485c-3.677,1.544-6.082,3.027-8.934,5.065
		c-2.808,2.005-5.555,5.128-7.644,6.432c-5.117,3.193-22.708-6.583-46.808,5.097c-22.973,11.134-29.437,36.715-12.315,53.025
		c2.376,2.265,4.593,4.177,7.933,6.063c3.286,1.855,6.944,2.563,9.656,4.457c-6.499,1.548-14.134,4.145-16.312,8.944
		c-4.568,10.066,4.804,12.283,9.495,15.139c-33.172,6.971-30.685,31.844-12.135,42.127c17.078,9.467,48.623,9.741,68.261,4.891
		c5.537-1.367,9.723-2.853,14.558-5.468c6.557-3.549,7.239-4.275,11.296-8.766c6.757-7.481,9.035-21.603,1.651-30.609
		c-6.031-7.357-15.261-10.44-27.504-12.578l-26.505-3.481c-4.67-0.687-5.879-0.467-7.234-4.092
		c7.376-6.575,36.72,3.134,52.432-21.917c10.366-16.527,3.907-34.21-11.349-44.236L532,425.299
		C538.751,420.257,545.513,424.936,548.185,431.15z M528.756,527.062c3.596,3.971,4.528,11.236,1.28,17.09
		c-2.335,4.208-6.876,7.287-13.028,9.009c-38.349,10.734-50.997-24.885-23.952-32.645
		C504.251,517.304,522.707,520.377,528.756,527.062z M508.034,483.721c-25.709,8.119-29.589-46.752-9.159-53.8
		C525.726,420.659,527.362,477.616,508.034,483.721z M383.221,495.601c5.836-5.692,39.141,0.957,52.347-21.541
		c4.956-8.443,7.06-19.635,2.037-30.223c-5.43-11.446-15.513-14.767-19.332-18.622c4.101-3.041,8.362-3.646,12.67,0.152
		c3.884,3.423,7.302,20.122,11.471,5.251l7.342-23.364c-13.465-2.891-26.686,1.476-36.674,9.911
		c-6.768,5.716-0.932,5.339-14.46,3.466c-4.534-0.629-8.931-0.718-13.516-0.437c-46.27,2.837-53.536,43.485-35.019,59.31
		c4.963,4.241,10.479,6.447,17.698,9.674c-7.23,2.895-13.614,3.866-16.456,9.704c-4.273,8.78,3.607,11.884,9.503,14.375
		c-10.949,3.934-20.263,5.816-25.236,14.929c-14.65,26.842,38.925,42.518,80.203,32.623c11.616-2.786,20.812-7.471,25.918-14.126
		c6.101-7.948,8.241-20.714,1.794-30.403C430.653,496.959,387.266,504.827,383.221,495.601z M385.241,429.954
		c26.825-10.515,28.912,48.729,9.074,53.811c-13.724,3.516-20.509-9.59-21.656-21.815
		C371.395,448.485,374.746,434.069,385.241,429.954z M404.72,552.681c-11.751,3.98-27.442,2.756-34.772-4.682
		c-5.843-5.932-9.028-22.096,9.526-27.388c11.426-3.259,28.517-0.868,35.503,6.221C425.059,537.062,414.957,549.214,404.72,552.681z
		 M328.427,525.786c-36.27-0.169-69.937-1.108-105.79,0.441c-0.867-11.585,6.675-1.212,10.001-18.267
		c2.654-13.614,1.638-85.265,1.65-102.015c0.018-22.501-9.723-9.978-9.722-22.951l97.523,0.283l9.53,38.781
		c-7.926,1.869-5.006-1.498-11.954-8.481c-16.221-16.305-30.018-21.823-54.142-19.552l0.134,50.776
		c12.377,0.667,24.195,1.048,34.259-6.904c12.745-10.069,3.651-15.737,14.551-15.799l-0.371,57.103
		c-7.46-0.075-4.304-1.982-7.476-8.28c-7.638-15.168-25.552-16.866-41.098-15.331c-0.196,13.312-2.049,46.727,4.64,55.031
		c9.176,11.389,37.142,1.799,49.846-14.176c2.937-3.694,5.528-6.541,8.319-10.739c6.087-9.157,5.083-10.532,10.373-8.759
		C339.635,482.831,329.872,516.95,328.427,525.786z M144.933,301.385c-3.74,2.753-7.718,2.115-10.545,6.155
		c-4.78,6.832-0.1,37.22-1.55,45.494c-0.634,3.605-12.916,11.191-18.428,13.603c-7.649,3.346-15.905,5.699-25.159,6.779
		c-42.029,4.902-72.883-13.655-83.993-44.443c-14.741-40.849,3.625-77.194,28.915-91.923c26.569-15.474,62.324-13.883,90.257,0.512
		c3.375,1.74,7.265,4.55,10.258,5.644c-1.332,6.386-4.29,13.803-6.336,20.013c-3.592,10.906-3.647,17.901-8.691,16.279
		c-2.852-1.697-2.594-5.759-3.409-9.623c-5.162-24.454-23.01-40.956-50.119-31.565c-35.57,12.325-30.553,90.82-16.888,112.401
		c6.15,9.715,18.962,17.206,35.164,12.639c19.063-5.374,15.394-49.67,8.761-56.023c-10.002-9.58-17.422,2.076-17.395-10.766
		c14.865,1.054,68.018,0.356,69.165,0.555L144.933,301.385z M556.829,363.308c4.879,3.811,5.673,0.297,5.77,6.953l-54.542,0.197
		c0.054-2.113-0.154-1.2,0.465-3.012c0.87-2.549,2.538-2.72,2.772-3.048c7.725-2.864,8.266-11.25,8.729-20.311
		c0.481-9.461,0.289-19.569,0.24-29.098c-0.086-16.567-1.909-39.155-21.643-36.063c-14.712,2.305-19.284,21.419-19.291,38.043
		c-0.004,9.516-0.371,19.728,0.314,29.148c0.718,9.867,1.902,16.061,10.157,19.335c2.569,1.783,1.552,0.35,1.654,4.775
		l-54.541,0.174c0.18-7.386,1.933-3.272,6.937-8.292c2.662-2.67,3.647-5.543,4.357-9.487c1.668-9.265,1.339-46.349,1.163-57.773
		c-0.235-15.346-3.193-13.785-7.207-15.205c-5.109-1.805-2.77,1.757-3.441-3.875c2.87-3.808,14.894-3.413,19.676-4.31
		c6.947-1.301,12.837-3.018,19.41-4.453l0.082,15.941c5.964-5.558,4.274-8.21,13.439-13.378c16.06-9.056,43.309-6.622,53.629,14.461
		C556.82,308.264,543.435,352.846,556.829,363.308z M263.446,371.952c7.941,0.996,16.056,0.769,23.566-1.082
		c18.807-4.634,32.851-19.38,36.946-39.969l-7.611-6.415c-11.509,55.112-72.085,45.597-64.774-16.495l71.104,0.037
		c-3.982-30.038-24.129-45.691-57.231-43.289C201.551,269.377,199.881,363.972,263.446,371.952z M287.238,298.243l-35.151-0.035
		C256.551,264.45,285.825,264.992,287.238,298.243z M438.262,308.147c-6.034-65.527-113.941-56.25-105.404,17.742
		c5.391,46.738,63.824,62.154,94.229,30.39c3.675-3.839,7.089-10.033,9.738-16.379c4.449-10.662,2.649-10.146-4.345-15.447
		c-5.284,13.609-13.248,41.576-40.971,35.38c-18.63-4.162-28.504-28.291-24.097-51.744L438.262,308.147z M385.452,273.505
		c11.387-0.565,18.222,12.808,17.2,24.723l-34.607,0.092C367.644,287.525,375.588,273.995,385.452,273.505z M220.075,264.737
		l-11.057,33.943c-5.622-0.052-13.993-9.038-20.907,1.028c-4.161,6.058-4.76,15.559-4.788,24.042
		c-0.031,8.689-0.397,20.514,1.118,28.851c2.725,14.973,10.831,8.757,11.017,17.334l-54.293,0.222
		c0.144-8.244,1.786-3.321,6.981-8.473c2.436-2.418,3.501-6.088,4.125-9.98c1.514-9.453,1.301-44.922,1.074-56.018
		c-0.336-16.47-2.051-14.568-10.632-17.209c0.083-6.427,0.525-4.733,8.043-5.639c13.67-1.647,21.146-4.232,32.589-6.186
		l0.022,18.081C190.232,278.385,192.913,263.351,220.075,264.737z M310.36,220.783c29.625,0.376,78.627,3.33,78.617-42.374
		c-0.005-23.167-16.223-34.121-37.015-37.587c0.245-0.204,0.63-0.787,0.778-0.557c0.143,0.223,0.571-0.416,0.769-0.532
		c0.22-0.127,1.246-0.739,1.544-0.89c6.896-3.476,11.554-3.428,18.815-13.101c10.067-13.409,12.673-52.372-45.926-52.414
		l-61.643,0.21c0.005,12.1,10.03-0.345,10.012,21.58c-0.014,17.511,1.488,97.852-2.121,110.667
		c-3.556,12.629-10.298,5.547-9.612,15.222L310.36,220.783z M349.883,159.436c6.559,12.303,5.13,34.31-3.55,43.58
		c-7.307,7.806-32.514,13.518-36.957-2.067c-2.01-7.053-2.326-45.095-1.148-53.177C324.814,147.423,342.773,146.103,349.883,159.436
		z M308.667,84.349c22.338-2.244,37.481,2.985,36.97,26.249c-0.529,24.024-14.366,26.878-37.194,26.334
		C307.13,131.201,307.049,89.25,308.667,84.349z M531.904,197.425l-27.313-3.562c-4.646-0.732-5.274-0.543-6.617-4.068
		c7.718-7.139,37.437,3.661,53.919-22.481c10.041-15.926,5.263-33.814-11.645-45.013c-0.951-0.63-1.937-1.159-3.119-1.995
		c-0.333-0.235-0.566-0.397-0.752-0.526c1.492,1.219-1.572-1.081,0,0c-0.117-0.096-0.259-0.211-0.437-0.353
		c-1.076-0.862-1.202-1.033-1.641-1.505c4.61-3.625,9.007-3.21,12.96,0.484c1.736,1.621,2.65,3.048,3.701,5.557
		c0.181,0.431,2.536,10.165,6.716,2.872l8.672-27.625c-13.79-0.764-21.065-1.245-33.774,7.663c-11.951,8.376-3.8,8.378-19.068,6.36
		c-48.992-6.471-75.275,35.712-49.607,59.668c8.366,7.807,12.843,7.346,18.037,10.53c-6.403,1.923-14.456,4.172-16.736,9.168
		c-4.497,9.855,4.535,12.117,9.723,15.539c-34.553,8.135-29.839,32.823-11.478,43.224c20.733,11.744,77.333,12.42,96.433-10.212
		c6.596-7.816,8.243-23.009,0.722-31.389C554.13,202.549,544.085,199.559,531.904,197.425z M500.203,122.573
		c27.927-9.392,29.009,49.245,9.533,55.044C482.843,185.625,479.481,129.542,500.203,122.573z M533.734,236.046
		c-4.021,10.956-16.815,14.785-31.33,14.082c-13.396-0.648-24.866-7.355-22.287-22.085
		C484.15,205.042,542.897,211.083,533.734,236.046z M400.524,202.814c2.149-9.152,1.362-46.504,1.339-58.311
		c-0.026-11.933-0.447-15.749-12.342-17.189l0.007-3.345c1.461-2.838-0.209-1.593,4.829-2.345l43.188-6.396
		c-1.009,20.049-0.786,40.041-0.808,60.137c-0.009,8.72-0.399,20.069,1.476,28.319c3.483,15.336,12.45,6.35,12.616,16.931
		l-63.172,0.038C387.825,210.598,396.76,218.842,400.524,202.814z M410.878,74.166c25.992-6.285,38.599,20.523,13.584,26.156
		C397.842,106.316,386.314,80.106,410.878,74.166z"/>
	<g>
		<path d="M579.722,553.763c0,5.678-4.457,10.135-10.259,10.135c-5.74,0-10.318-4.457-10.318-10.135
			c0-5.556,4.579-10.013,10.318-10.013C575.266,543.75,579.722,548.207,579.722,553.763z M561.711,553.763
			c0,4.457,3.296,7.999,7.815,7.999c4.395,0,7.631-3.542,7.631-7.937c0-4.46-3.237-8.061-7.693-8.061
			C565.007,545.764,561.711,549.366,561.711,553.763z M567.875,559.013h-2.319V549c0.917-0.184,2.197-0.306,3.848-0.306
			c1.892,0,2.747,0.306,3.48,0.733c0.549,0.428,0.977,1.22,0.977,2.197c0,1.099-0.855,1.954-2.078,2.322v0.122
			c0.979,0.365,1.529,1.099,1.832,2.441c0.306,1.526,0.49,2.138,0.733,2.503h-2.503c-0.306-0.365-0.487-1.28-0.793-2.441
			c-0.184-1.099-0.795-1.588-2.076-1.588h-1.101V559.013z M567.937,553.335h1.099c1.283,0,2.322-0.428,2.322-1.464
			c0-0.917-0.674-1.529-2.138-1.529c-0.611,0-1.039,0.062-1.283,0.124V553.335z"/>
	</g>
	<g>
		<path fill="#000810" d="M878.746,600.023c0,3.102-2.435,5.537-5.604,5.537c-3.136,0-5.637-2.435-5.637-5.537
			c0-3.035,2.501-5.47,5.637-5.47C876.311,594.553,878.746,596.988,878.746,600.023z M868.906,600.023c0,2.435,1.801,4.37,4.27,4.37
			c2.401,0,4.169-1.935,4.169-4.336c0-2.436-1.768-4.404-4.203-4.404S868.906,597.621,868.906,600.023z M872.273,602.891h-1.267
			v-5.47c0.501-0.101,1.2-0.167,2.102-0.167c1.033,0,1.501,0.167,1.901,0.401c0.3,0.234,0.534,0.667,0.534,1.2
			c0,0.6-0.467,1.067-1.135,1.268v0.067c0.535,0.2,0.835,0.6,1.001,1.334c0.167,0.834,0.268,1.168,0.401,1.368h-1.367
			c-0.167-0.2-0.266-0.699-0.433-1.334c-0.1-0.6-0.435-0.868-1.134-0.868h-0.602V602.891z M872.307,599.79h0.6
			c0.701,0,1.268-0.234,1.268-0.8c0-0.501-0.368-0.835-1.168-0.835c-0.334,0-0.568,0.034-0.701,0.068V599.79z"/>
	</g>
	<g>
		<path fill-rule="evenodd" clip-rule="evenodd" d="M865.105,180.936c1.505-41.988-7.786-82.976-32.159-115.007
			c-7.291-9.583-26.607-30.282-39.84-34.747l2.223-10.176c-2.424-2.39-9.521-6.314-11.377-9.203
			c-2.121-3.304,1.251-1.815-4.153-5.684c-6.371-4.562-18.946-7.913-24.831-5.069c-5.936,2.868,1.689,2.232-6.361,3.341
			c-4.291,0.59-5.482,0.192-9.829,1.443c-6.903,13.047,2.047,8.049-17.455,9.873c-7.847,0.732-15.502,2.329-22.78,4.417
			c-38.057,10.92-70.636,39.388-91.241,73.038c-19.374,31.636-23.627,43.388,7.551,72.619c14.484,13.58,46.243,30.015,69.76,38.64
			c-30.233,4.988-87.063,10.269-103.902,38.225c-12.535,20.808,9.184,97.025,16.191,120.122c2.842,5.759,5.821,14.285,8.484,20.545
			c3.084,7.249,7.219,13.77,10.199,20.788c1.642,1.984,12.708,19.895,12.702,22.162c-0.01,3.213-7.395,22.649-8.966,27.399
			c-2.93,8.857-6.042,17.764-8.77,26.397c-6.875,21.759-6.682,14.56-1.662,27.33c2.832,7.205-2.54,26.041,12.096,21.831
			c5.17-1.487,6.152-5.46,6.13-11.455c-0.043-12.204,0.284-6.639,4.087-14.648c5.141-10.83,13.683-48.081,18.919-53.592
			c5.702,7.226,14.026,11.127,26.641,13.236c-0.744,14.913,3.465,10.811,3.863,19.688c0.355,7.92-1.155,15.963,6.752,17.524
			c8.973,1.77,10.734-5.248,10.651-13.021c-0.166-15.864,3.212-4.44,5.133-19.001l31.295,0.885
			c3.729,19.219,6.803,37.83,10.319,56.804c1.732,9.331,2.561,20.39,6.798,27.265c4.305,6.982-2.564,24.553,11.72,22.489
			c4.675-0.675,7.055-4.213,7.452-9.141c0.599-7.445-1.396-8.91,1.853-14.95c4.511-8.382,0.242-20.026-1.422-29.103
			c-3.198-17.451-8.958-41.171-10.329-58.332c6.34-1.063,14.178-3.595,19.866-5.74c3.601-1.358,5.418-2.665,7.469-4.598
			c1.545-1.455,1.556-1.87,3.058-3.449c2.691-2.827,0.631-1.41,4.252-3.186c3.32,15.016,11.31,35.566,16.341,50.784
			c1.936,5.854,3.976,7.84,5.367,11.081c2.075,4.836-0.459,11.216,1.594,16.053c3.19,7.525,16.57,7.682,16.703-6.858
			c0.021-2.24-0.255-5.664,0.041-7.763c1.06-7.557,7.24-5.562,2.263-19.976l-16.842-51.217c-5.919-16.679-7.272-15.796-1.935-23.719
			c26.528-39.362,45.878-108.062,45.27-159.55c-0.268-22.739-25.175-29.077-32.651-35.218c3.494-1.955,8.176-2.961,12.215-4.94
			C859.578,207.869,864.391,200.871,865.105,180.936z M826.892,80.841c8.915,14.079,15.059,32.12,15.959,52.06
			c-2.814-1.257-18.717-12.06-19.485-15.211c-0.716-2.938-0.789-11.444-1.457-15.373c-4.527-26.647-13.835-37.741-26.26-56.479
			C808.803,56.566,817.181,65.502,826.892,80.841z M779.231,17.776l5.737,2.41l-2.56,11.235c-1.143-0.381-3.489-1.154-4.316-1.553
			c-2.278-1.102-1.483-0.831-2.317-1.668C776.593,24.395,777.093,20.659,779.231,17.776z M602.039,113.721
			c2.201-6.662,8.133-9.52,14.3-12.515c2.908-1.413,6.531-2.301,10.055-3.264c-1.154-0.469-2.222-1.157-3.118-2.191
			c-2.504-2.887-2.273-6.855-1.882-9.588c0.044-0.311,0.123-0.617,0.236-0.91c0.689-1.798,0.999-3.442,1.299-5.032
			c0.75-3.981,1.779-9.434,10.184-10.267c0.134-0.013,0.269-0.02,0.403-0.021c1.065-0.003,2.134-0.025,3.203-0.043
			c5.262-6.17,8.557-5.43,11.88-6.578c14.302-4.94,0.352-6.732,18.399-17.858c4.866-3,3.422-1.729,8.589-1.433
			c14.44,0.826,13.009-9.557,24.073-12.863c21.91-6.547,51.292-6.729,71.399,3.528c-4.576,2.871-11.192,4.458-16.006,7.28
			c-18.742,10.982-10.207,11.578-19.982,15.01c-3.68,1.291-4.996,1.462-6.923,4.116c-3.744,5.16-0.515,12.492-3.063,18.121
			l-15.23-2.569c7.66-15.223-0.558-13.865-0.584-13.867c-5.812-0.291-9.945,8.116-13.118,11.994l-1.228-0.204l0.929,2.348
			c0.669,1.694,0.176,3.627-1.225,4.792c-0.777,0.645-1.734,0.973-2.695,0.973c-0.222,0-0.445-0.017-0.664-0.052
			c-0.447,1.412-0.801,2.827-0.941,3.855c-0.025,0.18-0.044,0.34-0.06,0.482c1.332,1.366,1.978,3.346,2.164,6.376
			c0.014,0.234,0.007,0.467-0.018,0.697c45.703,5.172,108.821,24.704,142.139,52.816c15.828,13.356,25.21,20.883,24.834,40.108
			c-1.623-7.5-2.143-9.938-6.045-16.125c-31.169-49.419-156.58-85.239-220.756-71.871
			C613.527,102.934,612.598,106.392,602.039,113.721z M745.007,60.756c12.035,6.282,6.261,25.368-15.339,17.735l2.697-0.739
			C739.426,76.481,745.295,77.515,745.007,60.756z M796.733,248.06c6.853,8.939,20.536,16.168,19.256,24.686l-17.434,5.15
			c-0.47-2.318-1.829-5.612-5.072-10.161c-0.666-1.255-0.783-1.214-2.366-3.268c-1.791-2.322-2.083-2.904-3.849-4.374
			c-11.798-13.528-15.484-16.125-16.075-22.623c-0.342-3.762,3.164-8.267,6.396-11.572c5.833-0.222,13.179,0.992,17.811,3.394
			C795.401,229.292,789.57,238.717,796.733,248.06z M759.358,229.062c-0.074,0.108-0.141,0.203-0.213,0.306
			c-0.895,0.936-1.669,1.99-2.208,3.224c-1.119,1.833-1.409,3.237-0.603,5.931c0.621,3.34,3.062,7.181,5.533,9.792
			c2.655,3.253,5.277,5.663,5.277,5.663s0.151,0.136,0.419,0.392c1.183,1.803,2.63,3.297,4.16,4.46c2.9,3.44,6.375,8.34,7.88,13.523
			c1.312,4.519,0.571,7.727-0.582,9.877c-6.352,0.912-12.971,1.696-19.758,2.345c1.501-2.557,2.996-6.832,1.341-12.534
			c-2.722-9.377-18.957-19.049-26.167-31.582c-1.407-4.37-0.644-9.198,4.15-13.409c7.437-6.531,15.065-5.398,25.98-3.394
			C762.472,225.47,760.509,227.387,759.358,229.062z M723.858,227.37c-1.971,1.782-3.506,3.868-3.989,6.427
			c-1.188,6.295,3.779,12.59,6.925,15.29c0.579,0.692,1.167,1.358,1.764,1.997c3.815,5.13,8.2,8.064,12.006,12.181
			c0.473,0.621,0.93,1.255,1.352,1.925c4.323,6.866,3.041,17.046,2.425,20.555c-6.335,0.39-12.749,0.654-19.199,0.764
			c0.541-2.9,0.536-7.104-0.668-13.221c-3.738-18.999-17.13-13.704-24.917-34.26c-2.746-7.249,0.673-12.05,6.238-15.238
			c7.077-3.53,16.296-2.432,26.099-1.85C731.895,221.94,727.294,223.794,723.858,227.37z M684.297,231.553
			c-2.803,6.229,3.426,14.016,3.426,14.016s7.314,6.975,12.64,12.628c0.011,0.044,0.018,0.078,0.018,0.097
			c0.065,0.032,0.259,0.207,0.78,0.854c1.687,2.096,0.852,1.158,1.385,1.425c0.932,1.044,1.74,1.993,2.307,2.75
			c3.438,4.584,8.44,15.22,7.526,23.2c-8.607-0.124-17.169-0.538-25.554-1.273c0.612-2.268,1.189-5.663,1.291-10.558
			c0.033-1.611-0.357-3.32-1.034-5.061c-1.063-3.176-2.86-6.272-5.093-8.464c-5.581-7.155-12.955-13.105-12.955-13.105
			s-12.678-13.488-1.258-22.43c0.18-0.099,0.362-0.212,0.539-0.293c3.394-1.56,17.224-2.589,23.984-3.095
			C689.429,224.634,685.854,228.092,684.297,231.553z M649.161,241.286c1.397,2.596,3.756,4.842,6.224,7.631
			c1.397,2.659,3.678,4.616,5.91,6.477c3.014,3.377,5.465,6.11,6.253,6.988c0.039,0.047,0.076,0.088,0.114,0.127
			c0.106,0.118,0.177,0.197,0.177,0.197c0.912,1.309,1.643,2.249,2.253,3.014c2.833,4.258,6.746,12.148,1.728,17.827
			c-7.216-1.02-14.224-2.296-20.878-3.901c0.718-4.108,0.879-9.348-1.529-13.522c-4.672-8.098-4.36-6.229-14.016-16.196
			c-5.8-5.987-8.666-11.284-10.039-14.572l24.691-6.975C650.05,228.382,645.214,234.565,649.161,241.286z M613.157,242.599
			c5.412,11.526,13.875,12.835,18.815,20.1c3.08,4.53,3.732,9.259,3.741,12.432c-7.494-0.71-19.07-7.228-23.522-10.906
			C603.973,257.433,606.166,248.372,613.157,242.599z M713.184,452.669c-8.804,0.478-18.518-1.222-26.792-3.306l-2.717-0.851
			c-4.509-0.487-8.573-1.993-13.043-3.339c-5.46-1.644-8.157-1.616-11.076-5.295c-2.074-2.616-8.181-11.439-10.301-16.755
			l-3.558-5.573c-6.374-7.897,9.807-24.013-17.977-29.15c-14.272-30.674-25.039-52.889-30.019-89.732
			c4.955,1.674,10.183,4.74,16.057,6.909c24.233,8.952,33.823,7.882,55.722,13.166c0.493,7.832,2.804,14.659,9.696,14.567
			c4.11-4.721,3.313-5.869,2.698-13.527l11.37,1.432c1.62,13.812-9.402,25.57,2.78,32.398c8.832,4.949,15.654,11.044,15.216,25.41
			c-0.486,15.89-13.695,13.166-17.745,23.967c-4.622,12.328,1.453,25.762,10.333,28.92l16.033,2.911L713.184,452.669z
			 M707.166,410.639c-1.318-4.259-3.337-5.601-5.669-7.568l-2.186-2.038c13.44-7.234,25.816,22.959,5.053,23.07
			C706.512,420.411,709.056,416.749,707.166,410.639z M704.834,352.654c8.328-12.934,6.865-16.145-5.677-24.2
			c1.769-1.638,9.447-0.837,12.315,0.732c3.013,1.647,4.844,4.056,5.659,8.571C718.637,346.096,712.649,352.327,704.834,352.654z
			 M812.462,381.079c-8.219,17.485-16.638,33.092-27.793,47.971l-11.595,13.219c2.858-8.706,9.592-20.234,13.45-30.076
			c14.876-37.959,16.013-62.435,24.549-100.692l24.96-9.062C833.878,325.09,821.091,362.725,812.462,381.079z M858.773,260.044
			c-0.263,17.484-37.567,30.083-57.318,34.933c-25.841,6.347-53.808,8.877-81.461,8.91c-27.168,0.033-56.456-2.927-82.049-9.56
			c-20.275-5.254-55.433-16.756-55.048-35.612c6.1,11.66,10.792,14.725,22.719,20.971c52.844,27.679,192.168,29.708,242.405-7.031
			C854.039,268.253,854.547,265.018,858.773,260.044z M829.039,265.065c-1.14-2.252-3.404-5.343-7.701-9.53
			c-11.01-10.728-15.343-13.037-12.814-22.65C824.227,235.549,849.032,252.975,829.039,265.065z M813.717,204.735
			c-43.379,5.027-102.757-10.499-138.021-25.431c-20.847-8.828-37.85-17.979-51.779-30.337
			c-22.676-20.12-12.426-35.466,19.704-39.322c79.421-9.535,222.45,50.649,198.698,83.349
			C837.19,200.055,825.224,203.401,813.717,204.735z"/>
		<path fill-rule="evenodd" clip-rule="evenodd" d="M635.132,94.672l53.092-1.075c-0.41-6.719-2.895-1.609-2.072-7.679
			c0.355-2.626,1.704-6.817,2.946-9.231l2.836,1.779l-1.862-4.706c-6.128-3.789-20.576-0.96-28.84-0.638
			c-9.172,0.36-18.391,1.001-27.702,1.028c-7.54,0.747-5.234,5.486-7.962,12.612C624.427,94.718,628.338,94.799,635.132,94.672z"/>
		<path fill-rule="evenodd" clip-rule="evenodd" d="M671.296,67.598c11.38-4.837,16.101-21.334,1.734-15.123
			C661.549,57.438,656.645,73.824,671.296,67.598z"/>
		<path fill-rule="evenodd" clip-rule="evenodd" d="M709.379,47.613c2.443-1.301,9.036-6.461,6.653-10.185
			c-3.126-4.881-22.133-0.611-21.097,11.358C699.488,50.4,704.9,49.998,709.379,47.613z"/>
		<path fill-rule="evenodd" clip-rule="evenodd" d="M625.508,314c-4.006,1.589-3.83,8.223-2.876,12.295
			c1.417,6.042,3.163,8.713,9.502,8.842C636.441,327.596,634.02,310.624,625.508,314z"/>
		<path fill-rule="evenodd" clip-rule="evenodd" d="M658.866,343.414c-8.468,5.668-1.781,21.527,4.375,21.474
			C671.24,364.819,669.111,346.537,658.866,343.414z"/>
		<path fill-rule="evenodd" clip-rule="evenodd" d="M697.445,384.671c4.063-8.521-1.357-23.715-8.366-20.363
			c-3.911,1.872-3.328,8.473-1.908,12.491C690.403,385.932,694.193,384.808,697.445,384.671z"/>
	</g>
</g>
<g>
</g>
<g>
</g>
<g>
</g>
<g>
</g>
<g>
</g>
<g>
</g>
<g>
</g>
<g>
</g>
<g>
</g>
<g>
</g>
<g>
</g>
<g>
</g>
<g>
</g>
<g>
</g>
<g>
</g>
</svg>
