<?xml version="1.0" encoding="utf-8"?>
<!-- Generator: Adobe Illustrator 30.7.0, SVG Export Plug-In . SVG Version: 9.03 Build 0)  -->
<svg version="1.1" id="art_00000143587602011867678910000007088980317080036769_"
	 xmlns="http://www.w3.org/2000/svg" xmlns:xlink="http://www.w3.org/1999/xlink" x="0px" y="0px" viewBox="0 0 1189.883 253.128"
	 enable-background="new 0 0 1189.883 253.128" xml:space="preserve">
<g id="Seat_Saver_Color">
	<path fill="#FFFFFF" d="M1149.258,44.905v194.423H864.88c-2.686-2.897-5.03-6.492-7.006-10.956
		c-7.651-17.343-5.149-36.28-8.494-54.215l-28.681,65.172H157.142c-0.896-1.001-1.725-2.068-2.515-3.226
		c-3.45-5.083-4.451-11.509-7.743-16.632c-7.427,7.664-16.632,14.538-26.43,19.858H23.177v-70.281l8.191-22.742
		c13.182,5.992,24.533,17.119,39.467,18.568c-21.452-16.711-38.439-36.648-37.202-65.659c1.593-37.531,27.773-72.164,61.261-88.099
		h94.485c5.202,2.739,10.627,5.729,10.983,6.295c1.988,3.121-5.188,14.393-5.294,18.581h152.112l-15.078,70.268l2.291,0.553
		l30.973-70.637l180.925-0.211c3.398-0.645,11.549-10.904,15.157-13.88c4.846-3.99,11.378-7.875,17.844-10.97h95.355
		c3.898,1.949,7.704,4.109,11.444,6.466l-5.649,18.41l432.565-0.053C1127.622,36.306,1139.75,39.519,1149.258,44.905z"/>
	<g>
		<path fill="#C62033" d="M910.741,129.64c0.982,1.185,3.341,2.055,4.854,3.858c13.917,16.585,10.461,46.49-1.749,63.324
			l75.008-15.551c30.47-3.113,31.716,12.164,20.382,35.477c-3.187,6.556-6.673,12.277-14.686,13.182
			c-16.553,1.868-34.596-0.892-51.069-1.239c-13.536-0.285-49.504,3.112-58.743-5.121c-3.77-3.359-5.7-9.44-6.619-14.282
			c-7.355-38.751-6.787-103.252,4.683-141.037c1.736-5.72,4.595-14.771,12.785-12.34c7.895,2.344,2.356,20.052,1.987,25.951
			C896.42,100.342,898.904,115.355,910.741,129.64z"/>
		<path fill="#C62033" d="M190.163,57.163c4.443,4.615,0.432,17.686,0.213,23.481c-0.624,16.531-0.151,33.081,10.524,46.472
			c4.482,5.623,9.558,7.886,12.595,15.273c7.383,17.96,3.653,39.85-7.972,54.99l75.012-16.127
			c11.782-1.27,28.925-0.339,28.388,15.522c-0.289,8.52-11.728,35.396-23.818,33.173c-29.639-1.802-62.496,1.174-91.763-1.22
			c-18.135-1.483-21.336-9.48-23.681-26.249c-5.06-36.192-6.042-104.88,7.099-138.933C178.812,58.23,185.311,52.124,190.163,57.163z
			"/>
		<path fill="#070707" d="M1079.861,132.369l8.368-43.881C1124.693,78.932,1108.096,139.639,1079.861,132.369z"/>
		<path fill="#0B0B0B" d="M369.243,164.877l23.804-69.68c2.124,0.048-1.548,27.182-1.735,29.627
			c-0.606,7.901-0.461,16.503-1.174,24.371c-0.251,2.766-1.302,15.682-2.896,15.682H369.243z"/>
		<polygon fill="#0B0B0B" points="682.754,164.877 704.246,102.168 706.707,111.848 702.493,164.877 		"/>
		<path fill="#040304" d="M1149.258,149.214c2.792-4.701,10.64-13.827,12.826-17.659c20.556-35.937,15.276-70.742-12.826-86.65
			c-9.508-5.386-21.636-8.599-36.253-8.968L680.439,35.99l5.649-18.41c-3.74-2.357-7.546-4.517-11.444-6.466
			C665.401,6.439,655.722,2.831,645.595,0h-32.513c-7.585,3.384-15.96,4.148-23.822,6.94c-3.134,1.106-6.545,2.528-9.969,4.174
			c-6.466,3.095-12.997,6.979-17.844,10.97c-3.608,2.976-11.76,13.234-15.157,13.88l-180.925,0.211l-30.973,70.637l-2.291-0.553
			l15.078-70.268H195.068c0.105-4.188,7.282-15.46,5.294-18.581c-0.355-0.566-5.781-3.555-10.983-6.295
			c-4.214-2.212-8.27-4.24-9.416-4.714c-6.426-2.607-13.379-3.713-19.727-6.4h-31.355c-7.612,3.345-15.934,4.201-23.822,6.94
			c-3.45,1.198-6.848,2.594-10.166,4.174C61.406,27.049,35.226,61.682,33.633,99.213c-1.238,29.011,15.75,48.948,37.202,65.659
			c-14.933-1.449-26.285-12.576-39.467-18.568l-8.191,22.742L0,233.389v2.318l17.449,8.678l25.508,8.744h37.162
			c8.112-3.068,16.777-4.069,24.994-6.94c5.162-1.804,10.337-4.122,15.341-6.861c9.798-5.32,19.002-12.194,26.43-19.858
			c3.292,5.123,4.293,11.549,7.743,16.632c0.79,1.159,1.62,2.225,2.515,3.226c8.296,9.231,21.004,11.852,33.29,12.642h624.696
			l5.57-12.642l28.681-65.172c3.345,17.936,0.843,36.872,8.494,54.215c1.975,4.464,4.319,8.059,7.006,10.956
			c11.088,12.036,27.667,12.115,45.458,12.642h249.652c-11.246-27.312-7.888-53.728-9.244-81.922
			c-0.132-2.7-0.856-6.123-1.488-9.468c-0.645-3.345-1.185-6.637-0.988-9.073C1148.31,150.992,1148.678,150.202,1149.258,149.214z
			 M908.6,58.048h117.86l-6.979,38.321H905.69c-0.658-8.823,0.408-17.475,1.159-26.127C907.046,67.924,905.953,58.048,908.6,58.048z
			 M1004.389,123.075l-7.111,37.004l-64.882,0.158c-0.5-8.639-1.449-19.358-6.453-26.64c-2.476-3.595-7.875-6.058-8.639-10.522
			H1004.389z M895.589,55.914c7.888,2.344,2.357,20.056,1.989,25.955c-1.159,18.476,1.33,33.488,13.169,47.776
			c0.974,1.185,3.332,2.054,4.846,3.845c13.919,16.593,10.469,46.499-1.751,63.328l75.009-15.552
			c30.472-3.108,31.723,12.168,20.385,35.477c-3.187,6.558-6.677,12.286-14.683,13.182c-16.553,1.87-34.594-0.882-51.068-1.238
			c-13.537-0.276-49.501,3.121-58.746-5.122c-3.766-3.358-5.702-9.429-6.624-14.275c-7.348-38.755-6.782-103.256,4.688-141.037
			C884.541,62.538,887.398,53.478,895.589,55.914z M693.779,56.889h47.025l-4.635,171.851h-38.321l1.159-33.672h-27.865
			l-13.353,33.672h-36.583L693.779,56.889z M618.323,23.229c6.031-0.408,35.819,1.304,38.703,5.965
			c2.515,4.056-12.471,33.699-12.602,40.467c-11.22-3.766-20.543-7.269-32.777-5.504c-15.407,2.225-27.812,17.817-15.947,31.605
			c17.027,19.806,43.694,19.951,44.194,56.928c0.79,58.219-63.499,87.453-113.909,74.324c-3.029-0.79-11.391-2.765-11.654-5.82
			l13.959-38.413l1.567-0.342c18.41,10.851,66.094,12.602,61.09-19.24c-1.751-11.193-25.323-22.492-33.62-31.394
			C516.66,88.243,566.609,26.693,618.323,23.229z M444.14,56.889h98.12l-6.979,37.149c-4.793,0.79-28.997-1.475-30.815,1.119
			L475.495,228.74h-37.741L464.46,94.051h-29.037L444.14,56.889z M378.534,56.889h47.605L421.49,228.74h-38.308l2.318-33.672
			h-27.865l-12.774,33.672h-38.321L378.534,56.889z M197.346,80.645c0.395-7.348,2.989-15.065,2.37-22.598h119.598
			c-3.134,10.614-3.648,26.443-7.203,36.332c-0.316,0.856-0.737,1.501-1.501,1.988H199.137
			C196.661,96.368,197.201,83.292,197.346,80.645z M218.758,134.795c-2.305-3.872-5.175-5.399-7.928-8.27
			c-1.067-1.119-2.318-1.369-1.83-3.45h88.257l-7.625,37.202l-65.541-0.04C224.579,151.216,223.407,142.604,218.758,134.795z
			 M190.169,57.165c4.438,4.609,0.421,17.686,0.211,23.48c-0.632,16.527-0.158,33.08,10.522,46.472
			c4.477,5.623,9.56,7.888,12.589,15.276c7.388,17.962,3.661,39.848-7.967,54.992l75.009-16.132
			c11.786-1.277,28.932-0.342,28.392,15.526c-0.29,8.52-11.733,35.398-23.822,33.172c-29.63-1.804-62.499,1.172-91.759-1.225
			c-18.133-1.488-21.333-9.481-23.677-26.245c-5.07-36.201-6.044-104.889,7.098-138.943
			C178.818,58.232,185.31,52.122,190.169,57.165z M126.288,64.158c-15.223,2.199-27.443,16.922-16.487,30.999
			c13.314,17.119,39.098,18.489,43.167,48.54c9.179,67.766-69.386,103.427-125.103,79.223l13.946-40.626
			c4.28,0.132,7.44,2.897,11.602,4.069c14.077,3.964,39.203,6.571,48.579-7.164c15.75-23.085-18.173-34.278-30.591-47.987
			c-33.554-37.004-0.843-91.404,40.981-104.19c18.515-5.649,43.76-6.242,60.55,3.858l-13.867,38.782
			C147.608,66.107,138.758,62.354,126.288,64.158z M800.617,228.74h-43.549L754.75,56.889h44.115l-7.559,121.929l42.983-121.929
			h42.377L800.617,228.74z M1114.703,147.476c-0.356,3.174,3.45,3.648,5.267,5.742c3.437,3.977,5.61,9.455,6.216,14.683
			c2.305,19.924-2.173,40.928,1.291,60.839h-40.639c-4.346-17.949,2.384-38.505-0.105-56.217c-1.014-7.19-6.624-11.233-13.34-8.942
			l-14.433,65.159h-39.48l35.872-168.862c24.099-2.673,72.665-10.43,88.889,12.181c2.384,3.319,4.03,7.058,5.017,11.035
			c1.62,6.492,1.501,13.643,0,20.767C1145.228,123.101,1131.23,142.143,1114.703,147.476z"/>
		<g>
			<path d="M1189.053,241.369h-3.108l-1.87,5.346c-0.237,0.79-0.474,1.712-0.751,2.699h-0.039c-0.29-1.119-0.487-1.909-0.724-2.739
				l-1.87-5.307h-3.226l-0.79,10.838h2.067l0.395-6.374c0.04-1.001,0.079-2.028,0.079-3.029h0.119
				c0.237,0.961,0.566,2.239,0.764,3.068l1.949,6.176h2.226l1.949-6.018c0.316-0.988,0.645-2.265,0.922-3.226h0.118
				c0.039,1.159,0.039,2.199,0.079,3.029l0.395,6.374h2.146L1189.053,241.369z M1166.956,241.369v1.791h3.463v9.047h2.146v-9.047
				h3.463v-1.791H1166.956z"/>
		</g>
	</g>
</g>
<g>
</g>
<g>
</g>
<g>
</g>
<g>
</g>
<g>
</g>
<g>
</g>
<g>
</g>
<g>
</g>
<g>
</g>
<g>
</g>
<g>
</g>
<g>
</g>
<g>
</g>
<g>
</g>
<g>
</g>
</svg>
